<svg width="32" height="32" viewBox="0 0 32 32" fill="none" xmlns="http://www.w3.org/2000/svg">
<g clip-path="url(#clip0_1013_7960)">
<path d="M18.3067 28C18.0723 28.4041 17.7358 28.7395 17.331 28.9727C16.9261 29.2059 16.4672 29.3286 16 29.3286C15.5328 29.3286 15.0739 29.2059 14.669 28.9727C14.2642 28.7395 13.9277 28.4041 13.6933 28M24.84 17.3333C24.2468 15.1619 23.964 12.9174 24 10.6667C24.0021 9.21741 23.6106 7.7948 22.8671 6.55078C22.1236 5.30676 21.0562 4.28807 19.7788 3.60351C18.5014 2.91896 17.0621 2.59425 15.6145 2.66408C14.167 2.73392 12.7656 3.19566 11.56 3.99999M8.34667 8.34666C8.11502 9.09814 7.99815 9.88029 8 10.6667C8 20 4 22.6667 4 22.6667H22.6667M1.33333 1.33333L30.6667 30.6667" stroke="currentColor" stroke-width="1.5" stroke-linecap="round" stroke-linejoin="round"/>
</g>
<defs>
<clipPath id="clip0_1013_7960">
<rect width="32" height="32" fill="white"/>
</clipPath>
</defs>
</svg>
