<svg viewBox="0 0 32 32" fill="none" xmlns="http://www.w3.org/2000/svg">
<path d="M25.3333 13.3334V16C25.3333 18.4754 24.35 20.8494 22.5997 22.5997C20.8493 24.35 18.4754 25.3334 16 25.3334M16 25.3334C13.5246 25.3334 11.1507 24.35 9.40033 22.5997C7.64999 20.8494 6.66666 18.4754 6.66666 16V13.3334M16 25.3334V30.6667M10.6667 30.6667H21.3333M16 1.33337C14.9391 1.33337 13.9217 1.7548 13.1716 2.50495C12.4214 3.25509 12 4.27251 12 5.33337V16C12 17.0609 12.4214 18.0783 13.1716 18.8285C13.9217 19.5786 14.9391 20 16 20C17.0609 20 18.0783 19.5786 18.8284 18.8285C19.5786 18.0783 20 17.0609 20 16V5.33337C20 4.27251 19.5786 3.25509 18.8284 2.50495C18.0783 1.7548 17.0609 1.33337 16 1.33337Z" stroke="currentColor" stroke-width="1.5" stroke-linecap="round" stroke-linejoin="round"/>
</svg>
